{"title":"The Best Of Roberta Flack","uid":4834091,"size":267077513,"categoryP":"audio","categoryS":"flac","magnet":"?xt=urn:btih:d2157bd9436e7c036ec65ac10885771f44c6e8c6&amp;dn=The+Best+Of+Roberta+Flack&amp;tr=udp%3A%2F%2Ftracker.openbittorrent.com%3A80&amp;tr=udp%3A%2F%2Fopen.demonii.com%3A1337&amp;tr=udp%3A%2F%2Ftracker.coppersurfer.tk%3A6969&amp;tr=udp%3A%2F%2Fexodus.desync.com%3A6969","seeders":2,"leechers":0,"uploader":"sowingmyseed","files":13,"time":1239243384,"description":"Exact Audio Copy V0.99 prebeta 3 from 28. July 2007\n\nEAC extraction logfile from 8. April 2009, 17:10\n\nRoberta Flack / The Best Of Roberta Flack\n\nUsed drive  : ATAPI   DVD D  DH16D3P   Adapter: 0  ID: 1\n\nRead mode               : Secure\nUtilize accurate stream : Yes\nDefeat audio cache      : No\nMake use of C2 pointers : No\n\nRead offset correction                      : 6\nOverread into Lead-In and Lead-Out          : No\nFill up missing offset samples with silence : Yes\nDelete leading and trailing silent blocks   : No\nNull samples used in CRC calculations       : No\nUsed interface                              : Installed external ASPI interface\nGap handling                                : Not detected, thus appended to previous track\n\nUsed output format : Internal WAV Routines\nSample format      : 44.100 Hz; 16 Bit; Stereo\n\n\nTOC of the extracted CD\n\n     Track |   Start  |  Length  | Start sector | End sector \n    ---------------------------------------------------------\n        1  |  0:00.32 |  4:50.58 |        32    |    21839   \n        2  |  4:51.15 |  4:40.67 |     21840    |    42906   \n        3  |  9:32.07 |  3:25.08 |     42907    |    58289   \n        4  | 12:57.15 |  2:55.12 |     58290    |    71426   \n        5  | 15:52.27 |  4:04.68 |     71427    |    89794   \n        6  | 19:57.20 |  2:44.50 |     89795    |   102144   \n        7  | 22:41.70 |  4:18.57 |    102145    |   121551   \n        8  | 27:00.52 |  4:51.23 |    121552    |   143399   \n        9  | 31:52.00 |  4:14.35 |    143400    |   162484   \n       10  | 36:06.35 |  3:34.02 |    162485    |   178536   \n       11  | 39:40.37 |  4:00.35 |    178537    |   196571   \n\n\nTrack  1\n\n     Filename E:MusicRoberta FlackThe Best Of Roberta FlackRoberta Flack - The Best Of Roberta Flack - 01. Killing Me Softly With His Song.wav\n\n     Peak level 93.3 %\n     Track quality 100.0 %\n     Copy CRC 1B762D40\n     Accurately ripped (confidence 2)  [5A802805]\n     Copy OK\n\nTrack  2\n\n     Filename E:MusicRoberta FlackThe Best Of Roberta FlackRoberta Flack - The Best Of Roberta Flack - 02. The Closer I Get To You.wav\n\n     Peak level 87.9 %\n     Track quality 99.9 %\n     Copy CRC 0384543F\n     Accurately ripped (confidence 2)  [D933A1D1]\n     Copy OK\n\nTrack  3\n\n     Filename E:MusicRoberta FlackThe Best Of Roberta FlackRoberta Flack - The Best Of Roberta Flack - 03. You've Got A Friend.wav\n\n     Peak level 98.2 %\n     Track quality 100.0 %\n     Copy CRC D0216BF6\n     Accurately ripped (confidence 2)  [1FF58FB5]\n     Copy OK\n\nTrack  4\n\n     Filename E:MusicRoberta FlackThe Best Of Roberta FlackRoberta Flack - The Best Of Roberta Flack - 04. Feel Like Makin' Love.wav\n\n     Peak level 92.4 %\n     Track quality 100.0 %\n     Copy CRC EED1800F\n     Accurately ripped (confidence 2)  [C1A82767]\n     Copy OK\n\nTrack  5\n\n     Filename E:MusicRoberta FlackThe Best Of Roberta FlackRoberta Flack - The Best Of Roberta Flack - 05. Will You Still Love Me Tomorrow.wav\n\n     Peak level 68.7 %\n     Track quality 100.0 %\n     Copy CRC 53098C38\n     Accurately ripped (confidence 2)  [80C9F164]\n     Copy OK\n\nTrack  6\n\n     Filename E:MusicRoberta FlackThe Best Of Roberta FlackRoberta Flack - The Best Of Roberta Flack - 06. Where Is The Love.wav\n\n     Peak level 91.4 %\n     Track quality 100.0 %\n     Copy CRC 294CF476\n     Accurately ripped (confidence 2)  [57CACE84]\n     Copy OK\n\nTrack  7\n\n     Filename E:MusicRoberta FlackThe Best Of Roberta FlackRoberta Flack - The Best Of Roberta Flack - 07. The First Time Ever I Saw Your Face.wav\n\n     Peak level 51.6 %\n     Track quality 100.0 %\n     Copy CRC 426307CF\n     Accurately ripped (confidence 2)  [AF542FF1]\n     Copy OK\n\nTrack  8\n\n     Filename E:MusicRoberta FlackThe Best Of Roberta FlackRoberta Flack - The Best Of Roberta Flack - 08. Back Together Again.wav\n\n     Peak level 95.9 %\n     Track quality 100.0 %\n     Copy CRC 1E23950F\n     Accurately ripped (confidence 2)  [C0A52752]\n     Copy OK\n\nTrack  9\n\n     Filename E:MusicRoberta FlackThe Best Of Roberta FlackRoberta Flack - The Best Of Roberta Flack - 09. You Are My Heaven.wav\n\n     Peak level 100.0 %\n     Track quality 100.0 %\n     Copy CRC 0D7CCCFE\n     Accurately ripped (confidence 2)  [B20C1CB2]\n     Copy OK\n\nTrack 10\n\n     Filename E:MusicRoberta FlackThe Best Of Roberta FlackRoberta Flack - The Best Of Roberta Flack - 10. If Ever I See You Again.wav\n\n     Peak level 67.9 %\n     Track quality 100.0 %\n     Copy CRC 6EBF785B\n     Accurately ripped (confidence 2)  [659B38F9]\n     Copy OK\n\nTrack 11\n\n     Filename E:MusicRoberta FlackThe Best Of Roberta FlackRoberta Flack - The Best Of Roberta Flack - 11. Jesse.wav\n\n     Peak level 75.7 %\n     Track quality 100.0 %\n     Copy CRC A5EC2B3F\n     Accurately ripped (confidence 2)  [4EB0B374]\n     Copy OK\n\n\nAll tracks accurately ripped\n\nNo errors occurred\n\nEnd of status report\n","torrent":{"xt":"urn:btih:d2157bd9436e7c036ec65ac10885771f44c6e8c6","amp;dn":"The+Best+Of+Roberta+Flack","amp;tr":["udp%3A%2F%2Ftracker.openbittorrent.com%3A80","udp%3A%2F%2Fopen.demonii.com%3A1337","udp%3A%2F%2Ftracker.coppersurfer.tk%3A6969","udp%3A%2F%2Fexodus.desync.com%3A6969"],"infoHash":"d2157bd9436e7c036ec65ac10885771f44c6e8c6","infoHashBuffer":{"type":"Buffer","data":[210,21,123,217,67,110,124,3,110,198,90,193,8,133,119,31,68,198,232,198]},"announce":[],"urlList":[]}}